<mxfile host="app.diagrams.net" modified="2023-10-19T07:11:33.484Z" agent="Mozilla/5.0 (Linux; Android 12; V2029) AppleWebKit/537.36 (KHTML, like Gecko) Chrome/103.0.0.0 Mobile Safari/537.36" etag="xobSuWUoTi_rh1JUaW5b" version="22.0.5" type="github">
  <diagram name="Halaman-1" id="W50BfAHsMXhC1-Pp3Plh">
    <mxGraphModel dx="4920" dy="9420" grid="1" gridSize="10" guides="1" tooltips="1" connect="1" arrows="1" fold="1" page="0" pageScale="1" pageWidth="827" pageHeight="1169" math="0" shadow="0">
      <root>
        <mxCell id="0" />
        <mxCell id="1" parent="0" />
        <mxCell id="24YDZm1_hf1uQH8F1d4X-1" value="" style="edgeStyle=none;orthogonalLoop=1;jettySize=auto;html=1;rounded=0;fontSize=12;startSize=8;endSize=8;curved=1;" edge="1" parent="1">
          <mxGeometry width="120" relative="1" as="geometry">
            <mxPoint x="1780" y="1650" as="sourcePoint" />
            <mxPoint x="1900" y="1650" as="targetPoint" />
            <Array as="points" />
          </mxGeometry>
        </mxCell>
      </root>
    </mxGraphModel>
  </diagram>
</mxfile>
